<svg width="232" height="85" viewBox="0 0 232 85" fill="none" xmlns="http://www.w3.org/2000/svg">
<path d="M22.8282 24.6839H33.0282V28.2839C33.0282 33.8339 28.2282 34.5839 22.8282 34.5839H17.4282V12.3839H22.8282C28.2282 12.3839 33.0282 13.1339 33.0282 18.6839H34.2282C34.2282 12.2339 29.1282 11.1839 22.8282 11.1839H17.4282C10.2282 11.1839 4.22821 13.2839 4.22821 23.4839C4.22821 33.6839 10.2282 35.7839 17.4282 35.7839H22.8282C29.1282 35.7839 34.2282 34.7339 34.2282 28.2839V23.4839H22.8282V24.6839ZM37.8235 35.4839H49.8235V11.4839H37.8235V35.4839ZM54.6106 35.4839H66.6106V24.3839H76.2106V23.1839H66.6106V12.6839H77.7106V11.4839H54.6106V35.4839ZM98.1212 12.6839H105.921V11.4839H78.3212V12.6839H86.1212V35.4839H98.1212V12.6839ZM5.12821 75.4839H17.1282V64.3839H26.7282V63.1839H17.1282V52.6839H28.2282V51.4839H5.12821V75.4839ZM41.1446 52.3839H47.1446V74.5839H41.1446V52.3839ZM41.7446 51.1839C34.5446 51.1839 28.5446 53.2839 28.5446 63.4839C28.5446 73.6839 34.5446 75.7839 41.7446 75.7839H46.5446C53.7446 75.7839 59.7446 73.6839 59.7446 63.4839C59.7446 53.2839 53.7446 51.1839 46.5446 51.1839H41.7446ZM81.1841 75.4839H94.5341L88.6841 64.8339V64.5339C91.5341 63.6339 93.6341 61.6839 93.6341 58.6839C93.6341 53.5839 87.6341 51.4839 80.1341 51.4839H63.6341V75.4839H75.6341V65.8839H75.9341L81.1841 75.4839ZM80.1341 64.6839H75.6341V52.6839H80.1341V64.6839ZM133.826 63.6339L140.876 51.4839H139.526L133.226 62.4339L126.776 51.4839H113.126L121.826 66.9339V75.4839H133.826V63.6339ZM152.883 52.3839H158.883V74.5839H152.883V52.3839ZM153.483 51.1839C146.283 51.1839 140.283 53.2839 140.283 63.4839C140.283 73.6839 146.283 75.7839 153.483 75.7839H158.283C165.483 75.7839 171.483 73.6839 171.483 63.4839C171.483 53.2839 165.483 51.1839 158.283 51.1839H153.483ZM189.172 75.7839C195.472 75.7839 200.572 74.7339 200.572 66.7839V51.4839H199.372V66.7839C199.372 73.8339 194.572 74.5839 189.172 74.5839H186.772V51.4839H174.772V66.7839C174.772 73.6839 180.772 75.7839 186.772 75.7839H189.172Z" fill="black"/>
<path d="M20.1 22.2H30.3V25.8C30.3 31.35 25.5 32.1 20.1 32.1H14.7V9.9H20.1C25.5 9.9 30.3 10.65 30.3 16.2H31.5C31.5 9.75 26.4 8.7 20.1 8.7H14.7C7.5 8.7 1.5 10.8 1.5 21C1.5 31.2 7.5 33.3 14.7 33.3H20.1C26.4 33.3 31.5 32.25 31.5 25.8V21H20.1V22.2ZM35.0953 33H47.0953V9H35.0953V33ZM51.8824 33H63.8824V21.9H73.4824V20.7H63.8824V10.2H74.9824V9H51.8824V33ZM95.393 10.2H103.193V9H75.593V10.2H83.393V33H95.393V10.2ZM2.4 73H14.4V61.9H24V60.7H14.4V50.2H25.5V49H2.4V73ZM38.4164 49.9H44.4164V72.1H38.4164V49.9ZM39.0164 48.7C31.8164 48.7 25.8164 50.8 25.8164 61C25.8164 71.2 31.8164 73.3 39.0164 73.3H43.8164C51.0164 73.3 57.0164 71.2 57.0164 61C57.0164 50.8 51.0164 48.7 43.8164 48.7H39.0164ZM78.4559 73H91.8059L85.9559 62.35V62.05C88.8059 61.15 90.9059 59.2 90.9059 56.2C90.9059 51.1 84.9059 49 77.4059 49H60.9059V73H72.9059V63.4H73.2059L78.4559 73ZM77.4059 62.2H72.9059V50.2H77.4059V62.2ZM131.098 61.15L138.148 49H136.798L130.498 59.95L124.048 49H110.398L119.098 64.45V73H131.098V61.15ZM150.155 49.9H156.155V72.1H150.155V49.9ZM150.755 48.7C143.555 48.7 137.555 50.8 137.555 61C137.555 71.2 143.555 73.3 150.755 73.3H155.555C162.755 73.3 168.755 71.2 168.755 61C168.755 50.8 162.755 48.7 155.555 48.7H150.755ZM186.444 73.3C192.744 73.3 197.844 72.25 197.844 64.3V49H196.644V64.3C196.644 71.35 191.844 72.1 186.444 72.1H184.044V49H172.044V64.3C172.044 71.2 178.044 73.3 184.044 73.3H186.444Z" fill="url(#paint0_linear)"/>
<defs>
<linearGradient id="paint0_linear" x1="106" y1="0" x2="106" y2="85" gradientUnits="userSpaceOnUse">
<stop stop-color="#FF499E"/>
<stop offset="1" stop-color="#4CB7FF"/>
</linearGradient>
</defs>
</svg>
