<svg width="23" height="23" viewBox="0 0 23 23" fill="none" xmlns="http://www.w3.org/2000/svg">
<g clip-path="url(#clip0)">
<path d="M11.5 23C17.8513 23 23 17.8513 23 11.5C23 5.14873 17.8513 0 11.5 0C5.14873 0 0 5.14873 0 11.5C0 17.8513 5.14873 23 11.5 23Z" fill="#FFD54F"/>
<path d="M20.6568 0.923828C20.102 0.923828 19.5787 1.1107 19.1666 1.4327C18.7546 1.1107 18.2313 0.923828 17.6764 0.923828C16.3846 0.923828 15.3333 1.92816 15.3333 3.16249C15.3333 5.08587 18.1844 7.17312 18.7546 7.57179C18.8791 7.65804 19.0229 7.70116 19.1666 7.70116C19.3104 7.70116 19.4541 7.65804 19.5787 7.57179C20.1489 7.17216 23 5.08587 23 3.16249C23 1.92816 21.9487 0.923828 20.6568 0.923828Z" fill="#9C15E0"/>
<path d="M5.32354 16.2572C4.76867 16.2572 4.24542 16.444 3.83333 16.766C3.42125 16.444 2.898 16.2572 2.34313 16.2572C1.05129 16.2572 0 17.2615 0 18.4958C0 20.4192 2.85104 22.5065 3.42125 22.9051C3.54583 22.9914 3.68958 23.0345 3.83333 23.0345C3.97708 23.0345 4.12083 22.9914 4.24542 22.9051C4.81563 22.5055 7.66667 20.4192 7.66667 18.4958C7.66667 17.2615 6.61538 16.2572 5.32354 16.2572Z" fill="#9C15E0"/>
<path d="M8.8646 10.7812C8.46785 10.7812 8.14585 10.4592 8.14585 10.0625C8.14585 9.53445 7.71652 9.10416 7.18752 9.10416C6.65852 9.10416 6.22919 9.53445 6.22919 10.0625C6.22919 10.4592 5.90719 10.7812 5.51044 10.7812C5.11369 10.7812 4.79169 10.4592 4.79169 10.0625C4.79169 8.74191 5.86598 7.66666 7.18752 7.66666C8.50906 7.66666 9.58335 8.74191 9.58335 10.0625C9.58335 10.4592 9.26135 10.7812 8.8646 10.7812Z" fill="#6D4C41"/>
<path d="M17.4896 10.7812C17.0928 10.7812 16.7708 10.4592 16.7708 10.0625C16.7708 9.53445 16.3415 9.10416 15.8125 9.10416C15.2835 9.10416 14.8542 9.53445 14.8542 10.0625C14.8542 10.4592 14.5322 10.7812 14.1354 10.7812C13.7387 10.7812 13.4167 10.4592 13.4167 10.0625C13.4167 8.74191 14.491 7.66666 15.8125 7.66666C17.1341 7.66666 18.2083 8.74191 18.2083 10.0625C18.2083 10.4592 17.8863 10.7812 17.4896 10.7812Z" fill="#6D4C41"/>
<path d="M11.5 17.25C9.407 17.25 7.4405 16.4354 5.96084 14.9548C5.68005 14.674 5.68005 14.2188 5.96084 13.938C6.24163 13.6572 6.69684 13.6572 6.97763 13.938C8.18513 15.1474 9.7913 15.8125 11.5 15.8125C13.2087 15.8125 14.8149 15.1474 16.0233 13.9389C16.3041 13.6581 16.7593 13.6581 17.0401 13.9389C17.3209 14.2197 17.3209 14.6749 17.0401 14.9557C15.5595 16.4354 13.593 17.25 11.5 17.25Z" fill="#6D4C41"/>
</g>
<defs>
<clipPath id="clip0">
<rect width="23" height="23" fill="white"/>
</clipPath>
</defs>
</svg>
